<?xml version="1.0" encoding="UTF-8"?>
<svg width="30px" height="30px" viewBox="0 0 30 30" version="1.1" xmlns="http://www.w3.org/2000/svg" xmlns:xlink="http://www.w3.org/1999/xlink">
    <!-- Generator: Sketch 55.1 (78136) - https://sketchapp.com -->
    <title>num_sample_name_tags</title>
    <desc>Created with Sketch.</desc>
    <g id="num_sample_name_tags" stroke="none" stroke-width="1" fill="none" fill-rule="evenodd">
        <g id="24-–-time">
            <rect id="body" x="0" y="0" width="30" height="30"></rect>
            <g id="icon" transform="translate(3.000000, 0.000000)" fill="#595959" fill-rule="nonzero">
                <path d="M4.41976498,19.7440423 L2.4266903,23.0658335 C5.35371996,24.3549022 8.54183767,25 12,25 C15.4581536,25 18.6462639,24.3549055 21.5733105,23.0658349 L19.580235,19.7440423 C17.3188861,20.5827021 14.7905543,21 12,21 C9.2094457,21 6.68111389,20.5827021 4.41976498,19.7440423 L4.41976498,19.7440423 Z M5.07782945,17.8549201 C7.1168661,18.6169219 9.42263414,19 12,19 C14.5659318,19 16.8626703,18.6203133 18.8950174,17.8650392 L17.9267257,11.3290703 C17.4731402,8.2673685 14.8451184,6 11.75,6 C8.70141475,6 6.14034662,8.29226558 5.8036867,11.3222049 L5.07782945,17.8549201 L5.07782945,17.8549201 Z M9.33217243,4.373486 C9.11987322,3.96195337 9,3.49497563 9,3 C9,1.34314575 10.3431458,0 12,0 C13.6568542,0 15,1.34314575 15,3 C15,3.54864954 14.8527197,4.06289993 14.5955386,4.50537179 C17.3573618,5.52161447 19.4522305,7.97888409 19.9051326,11.035973 L20.9600042,18.1563564 L23.5763835,22.5169886 C23.6140993,22.5823056 23.6140993,22.5823056 23.6473559,22.6500019 C24.0001227,23.3995806 23.6784363,24.293212 22.9288684,24.6459476 C20.7312548,25.6801888 18.3987086,26.3734456 15.9342604,26.7260993 C15.5927258,28.5885839 13.9611898,30 12,30 C10.0388102,30 8.40727425,28.5885839 8.06573962,26.7260993 C5.60128869,26.3734453 3.2687401,25.6801873 1.07112447,24.6459442 C1.00342853,24.6126878 1.00342853,24.6126878 0.938111846,24.5749722 C0.227734265,24.1487457 -0.00261331073,23.2273414 0.423618751,22.5169848 L3.03021802,18.1726527 L3.81591923,11.1013418 C4.17229835,7.89392969 6.39680854,5.30604017 9.33217243,4.373486 Z M10.2377902,26.9466635 C10.5753736,27.5737553 11.2379094,28 12,28 C12.7620906,28 13.4246264,27.5737553 13.7622098,26.9466635 C13.1816371,26.9822227 12.5942218,27 12,27 C11.4057782,27 10.8183629,26.9822227 10.2377902,26.9466635 L10.2377902,26.9466635 Z M12,4 C12.5522847,4 13,3.55228475 13,3 C13,2.44771525 12.5522847,2 12,2 C11.4477153,2 11,2.44771525 11,3 C11,3.55228475 11.4477153,4 12,4 Z" id="Shape"></path>
            </g>
        </g>
    </g>
</svg>