<svg xmlns="http://www.w3.org/2000/svg" xmlns:xlink="http://www.w3.org/1999/xlink" width="57.414" height="29.834" viewBox="0 0 57.414 29.834">
  <defs>
    <linearGradient id="linear-gradient" x1="0.019" y1="0.015" x2="0.968" y2="1" gradientUnits="objectBoundingBox">
      <stop offset="0" stop-color="#fee140"/>
      <stop offset="1" stop-color="#fa709a"/>
    </linearGradient>
  </defs>
  <g id="chair" transform="translate(-38.479 -0.093)">
    <g id="Group_42" data-name="Group 42" transform="translate(-2)">
      <path id="Shape" d="M.8,12.787a.807.807,0,0,1-.236-.035.8.8,0,0,1-.533-1L3.486.565a.8.8,0,0,1,1.538.468L1.573,12.222A.8.8,0,0,1,.8,12.787Z" transform="translate(42.999 17.14)" fill="url(#linear-gradient)"/>
      <path id="Shape-2" data-name="Shape" d="M4.255,12.787a.8.8,0,0,1-.768-.565L.035,1.032A.8.8,0,0,1,1.573.565l3.451,11.19a.8.8,0,0,1-.533,1A.808.808,0,0,1,4.255,12.787Z" transform="translate(54.418 17.14)" fill="url(#linear-gradient)"/>
      <g id="Group_41" data-name="Group 41" transform="translate(-0.521)">
        <path id="Shape-3" data-name="Shape" d="M13.364,1.6H.8A.8.8,0,1,1,.8,0h12.56a.8.8,0,1,1,0,1.6Z" transform="translate(44.168 24.628)" fill="url(#linear-gradient)"/>
        <path id="Shape-4" data-name="Shape" d="M6.241,11.928,5.424,2.685A2.955,2.955,0,0,0,2.472,0H1.717A1.709,1.709,0,0,0,.007,1.854l1.131,12.8A5.248,5.248,0,0,0,6.38,19.421H17.344A1.648,1.648,0,0,0,19,17.779v-.405a3.27,3.27,0,0,0-3.281-3.258H8.646A2.408,2.408,0,0,1,6.241,11.928Z" transform="translate(41 0.093)" fill="url(#linear-gradient)"/>
      </g>
    </g>
    <g id="Group_44" data-name="Group 44">
      <path id="Shape-5" data-name="Shape" d="M13.364,1.6H.8A.8.8,0,1,1,.8,0h12.56a.8.8,0,1,1,0,1.6Z" transform="translate(78.557 24.628)" fill="url(#linear-gradient)"/>
      <path id="Shape-6" data-name="Shape" d="M4.255,12.787a.8.8,0,0,1-.768-.565L.035,1.032A.8.8,0,0,1,1.573.565l3.451,11.19a.8.8,0,0,1-.533,1A.81.81,0,0,1,4.255,12.787Z" transform="translate(88.835 17.14)" fill="url(#linear-gradient)"/>
      <path id="Shape-7" data-name="Shape" d="M.8,12.787a.806.806,0,0,1-.236-.035.8.8,0,0,1-.533-1L3.486.565a.8.8,0,0,1,1.538.468L1.573,12.222A.8.8,0,0,1,.8,12.787Z" transform="translate(77.415 17.14)" fill="url(#linear-gradient)"/>
      <path id="Shape-8" data-name="Shape" d="M12.758,11.928l.817-9.243A2.955,2.955,0,0,1,16.526,0h.755a1.709,1.709,0,0,1,1.71,1.854l-1.131,12.8a5.248,5.248,0,0,1-5.242,4.768H1.654A1.648,1.648,0,0,1,0,17.779v-.405a3.27,3.27,0,0,1,3.281-3.258h7.072A2.408,2.408,0,0,0,12.758,11.928Z" transform="translate(76.894 0.093)" fill="url(#linear-gradient)"/>
    </g>
    <g id="Group_43" data-name="Group 43">
      <path id="Rectangle-path" d="M0,0H4.125V16.619H0Z" transform="translate(66.384 9.227)" fill="url(#linear-gradient)"/>
      <path id="Rectangle-path-2" data-name="Rectangle-path" d="M0,0H4.125V3.574H0Z" transform="translate(66.384 9.227)" fill="url(#linear-gradient)"/>
      <path id="Shape-9" data-name="Shape" d="M9.111,0H2.3A2.152,2.152,0,0,0,.219,1.6l-.194.742a.753.753,0,0,0,.733.941h9.9a.753.753,0,0,0,.733-.941L11.2,1.6A2.151,2.151,0,0,0,9.111,0Z" transform="translate(62.739 25.845)" fill="url(#linear-gradient)"/>
      <path id="Shape-10" data-name="Shape" d="M25.541,0H2.879A2.91,2.91,0,0,0,.023,2.312h0a1.113,1.113,0,0,0,1.1,1.334H27.3a1.113,1.113,0,0,0,1.1-1.334h0A2.91,2.91,0,0,0,25.541,0Z" transform="translate(54.236 5.58)" fill="url(#linear-gradient)"/>
    </g>
  </g>
</svg>
