<svg xmlns="http://www.w3.org/2000/svg" width="42" height="63" viewBox="0 0 42 63">
  <g id="call" transform="translate(0 0)">
    <text id="directions" transform="translate(0 39)" fill="#535b72" font-size="18" font-family="SegoeUI, Segoe UI"><tspan x="-14.511" y="19">Call</tspan></text>
    <g id="icon_2" data-name="icon 2" transform="translate(5)">
      <path id="Shape" d="M18.643,26c-2.225,0-4.145-1.256-5.842-2.364l-.32-.209a33.947,33.947,0,0,1-6.26-5.25,34.956,34.956,0,0,1-5.452-7.6,7.168,7.168,0,0,1,.41-7.162,7.04,7.04,0,0,1,.882-1.076l1.8-1.8a1.972,1.972,0,0,1,2.717,0l3.594,3.595a1.919,1.919,0,0,1,0,2.716L7.848,9.172a.63.63,0,0,0-.083.794,32.513,32.513,0,0,0,8.253,8.255.643.643,0,0,0,.793-.084l2.318-2.318a1.966,1.966,0,0,1,2.717,0l3.593,3.594a1.927,1.927,0,0,1,0,2.718l-1.8,1.8A7.138,7.138,0,0,1,18.682,26Z" transform="translate(0 5)" fill="#d0021b"/>
      <path id="Path" d="M.667,0a.667.667,0,0,0,0,1.333,12.015,12.015,0,0,1,12,12,.667.667,0,1,0,1.333,0A13.348,13.348,0,0,0,.667,0Z" transform="translate(17)" fill="#5b5b5b"/>
      <path id="Path-2" data-name="Path" d="M8.667,9.333a.667.667,0,1,0,1.333,0A9.344,9.344,0,0,0,.667,0a.667.667,0,0,0,0,1.333A8.008,8.008,0,0,1,8.667,9.333Z" transform="translate(17 4)" fill="#5b5b5b"/>
      <path id="Path-3" data-name="Path" d="M0,.667a.667.667,0,0,0,.667.667,4,4,0,0,1,4,4A.667.667,0,0,0,6,5.333,5.339,5.339,0,0,0,.667,0,.667.667,0,0,0,0,.667Z" transform="translate(17 8)" fill="#5b5b5b"/>
    </g>
  </g>
</svg>
