<svg xmlns="http://www.w3.org/2000/svg" width="101.402" height="87.128" viewBox="0 0 101.402 87.128"><defs><style>.a,.b{fill:none;stroke-linecap:round;stroke-miterlimit:10;stroke-width:2.117px;}.a{stroke:#d0021b;}.b{stroke:#3d5a80;}</style></defs><g transform="translate(1.201 1.07)"><path class="a" d="M59.954,9.21V4.256A4.237,4.237,0,0,0,55.731,0H7.265A4.237,4.237,0,0,0,3.041,4.256V9.21l-.351,3.574-2.681,27a2.117,2.117,0,0,0,1.716,2.277c3.46.686,4.091,3.154,8.64,3.154,5.283,0,5.283-3.329,10.566-3.329s5.283,3.329,10.566,3.329,5.283-3.329,10.566-3.329,5.283,3.329,10.566,3.329c4.549,0,5.18-2.469,8.644-3.154a2.117,2.117,0,0,0,1.716-2.277L60.309,12.788Z" transform="translate(18 28.936)"/><path class="b" d="M.09,0V7.234" transform="translate(26.91 77.766)"/><path class="b" d="M.09,0V7.234" transform="translate(34.11 77.766)"/><path class="b" d="M.09,0V7.234" transform="translate(64.71 77.766)"/><path class="b" d="M.09,0V7.234" transform="translate(71.91 77.766)"/><path class="b" d="M0,.09H34.2" transform="translate(19.8 37.888)"/><path class="b" d="M5.4,0,0,36.786V72.34" transform="translate(93.6 12.66)"/><path class="b" d="M0,.09H9" transform="translate(84.6 50.548)"/><path class="b" d="M0,.09H9" transform="translate(84.6 57.782)"/><path class="b" d="M0,0,5.4,36.786V72.34" transform="translate(0 12.66)"/><path class="b" d="M9,.09H0" transform="translate(3.6 50.548)"/><path class="b" d="M9,.09H0" transform="translate(3.6 57.782)"/><path class="b" d="M3.6,9.043h0A3.774,3.774,0,0,1,0,5.112V.027A.026.026,0,0,1,.038,0l3.556,2.18L7.162,0A.027.027,0,0,1,7.2.027V5.112A3.782,3.782,0,0,1,3.6,9.043Z" transform="translate(45)"/><path class="b" d="M.094,0,.086,7.234" transform="translate(48.51 9.043)"/><path class="b" d="M0,12.66,1.221,6.33.281,1.453A1.21,1.21,0,0,1,1.449,0h4.3A1.212,1.212,0,0,1,6.919,1.453L5.979,6.33,7.2,12.66" transform="translate(45 16.277)"/></g></svg>