<svg xmlns="http://www.w3.org/2000/svg" width="88" height="61.7" viewBox="0 0 88 61.7">
  <g id="directions" transform="translate(0 0.7)">
    <text id="directions-2" data-name="directions" transform="translate(0 37)" fill="#535b72" font-size="18" font-family="SegoeUI, Segoe UI"><tspan x="-39.898" y="19">Directions</tspan></text>
    <g id="icon_1" data-name="icon 1" transform="translate(29)">
      <g id="Group" transform="translate(10.629 5.314)">
        <path id="Path" d="M0,.078H9.464" transform="translate(0.015 5.89)" fill="none" stroke="#3d5a80" stroke-linecap="round" stroke-miterlimit="10" stroke-width="1.4"/>
        <path id="Path-2" data-name="Path" d="M0,3.953A3.768,3.768,0,0,1,3.549,0,3.768,3.768,0,0,1,7.1,3.953" transform="translate(1.19 1.747)" fill="none" stroke="#3d5a80" stroke-linecap="round" stroke-miterlimit="10" stroke-width="1.4"/>
        <path id="Path-3" data-name="Path" d="M.07,0V.465" transform="translate(4.678 0.078)" fill="none" stroke="#3d5a80" stroke-linecap="round" stroke-miterlimit="10" stroke-width="1.4"/>
      </g>
      <path id="Path-4" data-name="Path" d="M23.745,0h4.007a.378.378,0,0,1,.371.3L31,14.868a.16.16,0,0,1-.157.189H.16A.16.16,0,0,1,0,14.868L2.877.3A.378.378,0,0,1,3.248,0h3.9" transform="translate(0 15.057)" fill="none" stroke="#3d5a80" stroke-linecap="round" stroke-miterlimit="10" stroke-width="1.4"/>
      <path id="Path-5" data-name="Path" d="M0,2.657,7.086,0" transform="translate(4.429 22.143)" fill="none" stroke="#3d5a80" stroke-linecap="round" stroke-miterlimit="10" stroke-width="1.4"/>
      <path id="Path-6" data-name="Path" d="M0,4.429H11.7a2.643,2.643,0,0,0,1.173-.274L21.257,0" transform="translate(4.429 20.371)" fill="none" stroke="#3d5a80" stroke-linecap="round" stroke-miterlimit="10" stroke-width="1.4"/>
      <path id="Path-7" data-name="Path" d="M0,0,6.2,4.429" transform="translate(21.257 23.029)" fill="none" stroke="#3d5a80" stroke-linecap="round" stroke-miterlimit="10" stroke-width="1.4"/>
      <path id="Path-8" data-name="Path" d="M17.714,8.685A8.775,8.775,0,0,0,8.728,0,8.811,8.811,0,0,0,0,8.4,8.721,8.721,0,0,0,6.99,17.176l1.766,3.155a.146.146,0,0,0,.2,0l1.766-3.155A8.729,8.729,0,0,0,17.714,8.685Z" transform="translate(6.2)" fill="none" stroke="#3d5a80" stroke-linecap="round" stroke-miterlimit="10" stroke-width="1.4"/>
    </g>
  </g>
</svg>
