<svg xmlns="http://www.w3.org/2000/svg" width="102.498" height="120" viewBox="0 0 34.166 40">
  <g id="Group_81" data-name="Group 81" transform="translate(-2.917)">
    <path id="Vector" d="M2.083,3.29A8.153,8.153,0,0,0,.093,9.625,7.922,7.922,0,0,0,6.226,6.492,8.8,8.8,0,0,0,8.161,0,9.386,9.386,0,0,0,2.083,3.29Z" transform="translate(19.338)" fill="#4b95fc"/>
    <path id="Vector-2" data-name="Vector" d="M25.366,0c-3.587,0-5.1,1.717-7.6,1.717-2.57,0-4.522-1.712-7.625-1.712a10.375,10.375,0,0,0-8.35,5.047C-1.1,9.537-.6,17.97,4.084,25.152c1.677,2.57,3.917,5.46,6.847,5.485,2.607.025,3.342-1.672,6.875-1.69s4.2,1.712,6.8,1.685c2.932-.022,5.295-3.225,6.972-5.795a28.821,28.821,0,0,0,2.582-4.85C27.384,17.4,26.3,7.76,33.009,4.057A10.126,10.126,0,0,0,25.366,0Z" transform="translate(2.917 9.362)" fill="#4b95fc"/>
  </g>
</svg>
