<svg xmlns="http://www.w3.org/2000/svg" width="34.139" height="40" viewBox="0 0 34.139 40">
  <g id="Group_82" data-name="Group 82" transform="translate(-2.93 0)">
    <path id="Vector" d="M21.914.089a.833.833,0,0,0-.453.655c-.03.273-.077.547-.135.833-1.632,7.4-4.908,11.007-10.02,11.007h-7.5a.833.833,0,0,0-.815.667L.491,24.969.044,27.952a2.5,2.5,0,0,0,2.445,2.965H7.506a2.488,2.488,0,0,0,2.425-1.9l2.027-8.1h4.348c5.132,0,8.678-4.092,9.987-11.522A8.71,8.71,0,0,0,22.711.115.833.833,0,0,0,21.914.089Z" transform="translate(10.528 9.083)" fill="#03a9f4"/>
    <path id="Vector-2" data-name="Vector" d="M22.236,0H8.436A4.145,4.145,0,0,0,4.313,3.543L.028,32.128A2.5,2.5,0,0,0,2.5,35H8.9a.833.833,0,0,0,.815-.667l2.358-11H18.91c5.93,0,9.848-4.145,11.648-12.333a9.812,9.812,0,0,0,.167-.988A8.605,8.605,0,0,0,28.736,2.97,8.77,8.77,0,0,0,22.236,0Z" transform="translate(2.93)" fill="#283593"/>
  </g>
</svg>
