<svg xmlns="http://www.w3.org/2000/svg" width="17.821" height="21.085" viewBox="0 0 17.821 21.085">
  <g id="Group_78" data-name="Group 78" transform="translate(-18.25 -49.25)">
    <path id="Vector" d="M2.72-.75A3.47,3.47,0,1,1-.75,2.72,3.474,3.474,0,0,1,2.72-.75Zm0,5.44A1.97,1.97,0,1,0,.75,2.72,1.972,1.972,0,0,0,2.72,4.69Z" transform="translate(24.451 55.669)" fill="#e21818"/>
    <path id="Vector-2" data-name="Vector" d="M8.16,20.335c-1.794,0-4.036-1.44-5.853-3.759A13.855,13.855,0,0,1-.75,8.268,8.975,8.975,0,0,1,8.16-.75a8.975,8.975,0,0,1,8.91,9.018,13.855,13.855,0,0,1-3.057,8.308C12.2,18.895,9.954,20.335,8.16,20.335ZM8.16.75A7.473,7.473,0,0,0,.75,8.268a12.333,12.333,0,0,0,2.738,7.383c1.492,1.9,3.37,3.184,4.673,3.184s3.18-1.28,4.673-3.184a12.333,12.333,0,0,0,2.738-7.383A7.473,7.473,0,0,0,8.16.75Z" transform="translate(19 50)"/>
  </g>
</svg>
