<svg xmlns="http://www.w3.org/2000/svg" width="23.486" height="22.398" viewBox="0 0 23.486 22.398">
  <g id="Group_82" data-name="Group 82" transform="translate(-32.25 -141.25)">
    <path id="Vector" d="M7.616-.75A8.366,8.366,0,1,1-.75,7.616,8.376,8.376,0,0,1,7.616-.75Zm0,15.233A6.866,6.866,0,1,0,.75,7.616,6.874,6.874,0,0,0,7.616,14.483Z" transform="translate(33 142)" fill="#868b8e"/>
    <path id="Vector-2" data-name="Vector" d="M0,.75A.75.75,0,0,1-.746.077.75.75,0,0,1-.077-.746,1.6,1.6,0,0,0,1.336-2.61a.75.75,0,0,1,.724-.775.75.75,0,0,1,.775.724A3.08,3.08,0,0,1,.077.746.759.759,0,0,1,0,.75Z" transform="matrix(0.923, 0.384, -0.384, 0.923, 36.984, 147.366)" fill="#868b8e"/>
    <path id="Union" d="M.952,0A.952.952,0,0,1,1.9.952V3.808a1.9,1.9,0,1,0,3.808,0V.952a.952.952,0,0,1,1.9,0V3.808A3.808,3.808,0,0,1,0,3.808V.952A.952.952,0,0,1,.952,0Z" transform="matrix(0.689, -0.725, 0.725, 0.689, 44.969, 158.402)" fill="#868b8e"/>
  </g>
</svg>
